<svg xmlns="http://www.w3.org/2000/svg" viewBox="0 0 117.8 109.19"><defs><style>.pessoa-1{fill:#980039;}</style></defs><title>homem2</title><g id="Camada_2" data-name="Camada 2"><g id="Camada_1-2" data-name="Camada 1"><path class="pessoa-1" d="M51.12,109.19l3-18.16-2.24-7.15L60.21,78l8.29,5.9L66.26,91l3,18.16h48.5l-8-23.39a25.23,25.23,0,0,0-17-16.08c-8.56-2.42-17.67-4.11-20.36-4.58l.15.15L59.72,75.93,46.11,65.29l.18-.18C43.7,65.55,34,67.28,25,69.78A25.14,25.14,0,0,0,8,85.86L0,109.19Z"/><path class="pessoa-1" d="M73.4,64.44c-2-1.9-3-7.75-3.39-12.18l0-.39-1.93,4.07c.44,3,1.29,6.84,2.87,9.19L59.7,74.41,47.79,65.1c1.91-2.85,2.74-7.91,3.08-10.92l-2.12-2.91-.07,1c-.34,4.43-1.43,10.28-3.39,12.18l-1,1L59.74,77.45l14.6-12.09Z"/><path class="pessoa-1" d="M81.89,23.46l-4,5.46V23.83s-6.43-5.57-7.69-8.27a34.38,34.38,0,0,1-10.57,1.66,34.32,34.32,0,0,1-10.56-1.66,24.28,24.28,0,0,1-4.28,5.11c-1.75,1.74-3.35,3.15-3.35,3.15h0v6.23l-4.84-6.6s-.47-18,8.66-18.7c0,0,4.18-4.21,12.76-4.71V0h2.46v0c8.58.5,12.75,4.71,12.75,4.71C82.37,5.5,81.89,23.46,81.89,23.46Z"/><path class="pessoa-1" d="M59.8,57.56h-.33c-9-.77-13.8-5.49-16.19-9.31a21.26,21.26,0,0,1-3-8.21V23.19l.44-.28c1.75-1.55,6.39-5.9,7.31-7.85l.44-.94,1,.32a33.07,33.07,0,0,0,20.4,0l1-.32.45.94c1,2,5.66,6.37,7.4,7.88l.41.35,0,16.75a20.88,20.88,0,0,1-3,8.21c-2.38,3.82-7.13,8.54-16.18,9.31Zm-.18-2.36h.08c15-1.31,16.87-14.25,17-15.35V24.37c-1.37-1.22-5.36-4.84-7.06-7.4a35.4,35.4,0,0,1-20,0c-1.68,2.52-5.64,6.17-7,7.38v15.5C42.75,40.94,44.62,53.89,59.62,55.2Z"/><path class="pessoa-1" d="M41.44,38.28c-3.61-.25-4-1.94-4-3.84s-.63-4-1.83-8.67,5.25-2.26,5.25-2.26l.54,1.37Z"/><path class="pessoa-1" d="M83,25.77c-1.19,4.66-1.9,6.71-1.82,8.67.07,1.77-.31,3.37-3.28,3.77V23.83l-.2-.16.06-.16S84.19,21.11,83,25.77Z"/><path class="pessoa-1" d="M69.17,54.27s-4.53,7.88-16,6.89l-2.66,9.16-4.45-5,3.56-11.71S60.4,58.31,69.17,54.27Z"/></g></g></svg>