<svg xmlns="http://www.w3.org/2000/svg" xmlns:xlink="http://www.w3.org/1999/xlink" viewBox="0 0 736.49 802.87"><defs><style>.logo-topo-1{fill:url(#Gradiente_sem_nome_106);}.logo-topo-2{fill:url(#Gradiente_sem_nome_138);}.logo-topo-3{fill:url(#Gradiente_sem_nome_138-2);}.logo-topo-4{fill:url(#Gradiente_sem_nome_138-3);}.logo-topo-5{fill:url(#Gradiente_sem_nome_138-4);}.logo-topo-6{fill:#7a002f;}</style><radialGradient id="Gradiente_sem_nome_106" cx="349.18" cy="289.6" r="222.12" gradientUnits="userSpaceOnUse"><stop offset="0" stop-color="#252525" stop-opacity="0.8"/><stop offset="0.99" stop-color="#252525"/></radialGradient><linearGradient id="Gradiente_sem_nome_138" x1="307.72" y1="288.18" x2="391.46" y2="288.18" gradientUnits="userSpaceOnUse"><stop offset="0" stop-color="#d40040"/><stop offset="1" stop-color="#7b0035"/></linearGradient><linearGradient id="Gradiente_sem_nome_138-2" x1="362.91" y1="136.47" x2="637.5" y2="136.47" xlink:href="#Gradiente_sem_nome_138"/><linearGradient id="Gradiente_sem_nome_138-3" x1="362.91" y1="176.9" x2="558.4" y2="176.9" xlink:href="#Gradiente_sem_nome_138"/><linearGradient id="Gradiente_sem_nome_138-4" x1="362.91" y1="211.72" x2="486.98" y2="211.72" xlink:href="#Gradiente_sem_nome_138"/></defs><title>marcos-especialista-virtual</title><g id="Camada_2" data-name="Camada 2"><g id="Camada_6" data-name="Camada 6"><path class="logo-topo-1" d="M416.93,305.31a69.48,69.48,0,1,1-82.57-84.91V40.75C295.35,95,200.18,91.19,185,91.19s-26.65,9.51-26.65,30.45-1.82,152.26,0,234.1c1.89,84.9,137,167.83,192.23,182.72,49.49-9.52,190.33-99,190.33-186.52V305.31Z"/><circle class="logo-topo-2" cx="349.59" cy="288.18" r="41.87"/><path class="logo-topo-3" d="M362.91,0V42.28C482.32,59.82,576.85,153.81,595.2,273h42.3C618.55,130.65,505.48,18.11,362.91,0Z"/><path class="logo-topo-4" d="M362.91,80.85v40.71A180.91,180.91,0,0,1,515.9,273h42.5C546.52,171.34,465.05,91,362.91,80.85Z"/><path class="logo-topo-5" d="M362.91,150.49V194A114.38,114.38,0,0,1,443.21,273H487A152.38,152.38,0,0,0,362.91,150.49Z"/><path class="logo-topo-6" d="M3.44,615.61H41.3l27.29,79.13,27-79.13h35.65V726.3h-24V644.43h-.52l-28,81.87H57.33L28.51,644.43h-.68V726.3H3.44Z"/><path class="logo-topo-6" d="M192.93,615.61h32.4L265.24,726.3h-27l-9.89-29.17H188l-9.72,29.17H152ZM222.6,679.4l-14-41.62h-.68L194,679.4Z"/><path class="logo-topo-6" d="M286.05,615.61h49.8q22.17,0,32.07,5.37t9.89,18v19.45q0,9.72-6.91,15.26t-18.33,7.08l32.06,45.54h-30.7l-29-43.49H312.66V726.3H286.05Zm49.46,49.63q9.38,0,12.79-2.47t3.42-9.64v-7.85q0-6.13-3.67-8.44t-12.54-2.3H312.66v30.7Z"/><path class="logo-topo-6" d="M444.07,727.32a88.19,88.19,0,0,1-12.87-2.56,44,44,0,0,1-13-5.37,26.45,26.45,0,0,1-8.52-9.29,27,27,0,0,1-3.59-14.16V647.33q0-33.42,51.34-33.43,13.14,0,35.14,3.75v20q-19.78-4.77-34.8-4.78c-4.21,0-7.47.12-9.8.34a29.68,29.68,0,0,0-7.25,1.71q-8,2.73-8,12.11v47.07q0,15,27.46,15,11.78,0,33.09-4.94v20.12A177.73,177.73,0,0,1,457.46,728,116.34,116.34,0,0,1,444.07,727.32Z"/><path class="logo-topo-6" d="M551.86,726.81a91.38,91.38,0,0,1-16.11-4.09,28.49,28.49,0,0,1-14.16-10q-5.12-6.91-5.12-16.8V647.5a29.21,29.21,0,0,1,3.67-14.67,28.82,28.82,0,0,1,9.46-10.23,50.31,50.31,0,0,1,12.63-5.46,68.45,68.45,0,0,1,14-2.73q6-.51,12.62-.51a134.83,134.83,0,0,1,13.65.6,87.11,87.11,0,0,1,13,2.47,51.47,51.47,0,0,1,13.47,5.8,27.66,27.66,0,0,1,8.87,9.55,29.21,29.21,0,0,1,3.76,15.18v48.44a26.08,26.08,0,0,1-4.87,15.86,29.76,29.76,0,0,1-13.38,10.06Q587.93,728,568.83,728A112.78,112.78,0,0,1,551.86,726.81Zm26.78-18.16a48,48,0,0,0,7.93-1.62,11.68,11.68,0,0,0,6.23-4,11.41,11.41,0,0,0,2.13-7.08V647.33q0-7.85-6.31-11.17T569,632.83q-13.31,0-19.61,3.24t-6.31,11.26v48.61A11.09,11.09,0,0,0,545.3,703a12.1,12.1,0,0,0,6.48,4,48,48,0,0,0,7.93,1.62,106.86,106.86,0,0,0,18.93,0Z"/><path class="logo-topo-6" d="M648.14,724.93V704.64q29,4.44,39.57,4.43,22.17,0,22.17-11.42v-7.17c0-3.64-1-6.42-3.15-8.36s-5.89-2.9-11.34-2.9h-13q-36.49,0-36.5-29V642q0-14.49,12.12-21.32t38.37-6.82A340.69,340.69,0,0,1,731,616.12V635.9q-25.75-3.06-35.47-3.07-13.48,0-18.08,2.22-5,2.38-5,7.5v7.85q0,8.7,14.67,8.7h13.3q18.93,0,27.46,7t8.53,21.32v7.33q0,19.8-14.16,26.78a51,51,0,0,1-15.09,5A116.72,116.72,0,0,1,687.37,728,309.57,309.57,0,0,1,648.14,724.93Z"/><path class="logo-topo-6" d="M0,765.4H28.14v6.31H8.87v8.47h17.4v6.31H8.87V796H28.71v6.31H0Z"/><path class="logo-topo-6" d="M39.23,801.84v-6.76a107.2,107.2,0,0,0,13.19,1.48c4.92,0,7.39-1.27,7.39-3.81v-2.39a3.62,3.62,0,0,0-1.05-2.79,5.69,5.69,0,0,0-3.78-1H50.66q-12.18,0-12.17-9.67v-2.73a7.57,7.57,0,0,1,4-7.1q4-2.28,12.79-2.28a114.6,114.6,0,0,1,11.54.74v6.6a118,118,0,0,0-11.83-1q-4.48,0-6,.74a2.63,2.63,0,0,0-1.65,2.5V777q0,2.89,4.89,2.9h4.43q6.32,0,9.15,2.33t2.85,7.11v2.44q0,6.6-4.72,8.93a17.31,17.31,0,0,1-5,1.67,38.22,38.22,0,0,1-6.63.49A102,102,0,0,1,39.23,801.84Z"/><path class="logo-topo-6" d="M80.5,765.4H95.28a39.34,39.34,0,0,1,8.56.74,7.94,7.94,0,0,1,4.61,2.59,8.16,8.16,0,0,1,1.44,5.14v7a9.19,9.19,0,0,1-1.56,5.69,8.64,8.64,0,0,1-5,2.9,38.69,38.69,0,0,1-9.12.85H89.37v12H80.5ZM95,784.22a10.58,10.58,0,0,0,4.89-.82,3,3,0,0,0,1.42-2.82v-5.91a2.31,2.31,0,0,0-1.36-2.39,14.76,14.76,0,0,0-5.06-.57H89.37v12.51Z"/><path class="logo-topo-6" d="M121.83,765.4H150v6.31H130.7v8.47h17.4v6.31H130.7V796h19.84v6.31H121.83Z"/><path class="logo-topo-6" d="M174.05,802.64a30.56,30.56,0,0,1-4.29-.85,14.94,14.94,0,0,1-4.32-1.79,8.79,8.79,0,0,1-2.84-3.1,9,9,0,0,1-1.2-4.72V776q0-11.15,17.11-11.15a74,74,0,0,1,11.72,1.25v6.66a49.9,49.9,0,0,0-11.6-1.6q-2.1,0-3.27.12a9.4,9.4,0,0,0-2.42.57,3.81,3.81,0,0,0-2.67,4v15.69q0,5,9.15,5a52.38,52.38,0,0,0,11-1.65v6.71a59.38,59.38,0,0,1-11.94,1.25A39.51,39.51,0,0,1,174.05,802.64Z"/><path class="logo-topo-6" d="M201.82,765.4h8.87v36.9h-8.87Z"/><path class="logo-topo-6" d="M234.12,765.4h10.8l13.3,36.9h-9l-3.3-9.72H232.47l-3.24,9.72h-8.76ZM244,786.66l-4.66-13.87h-.23l-4.66,13.87Z"/><path class="logo-topo-6" d="M268,765.4h8.87V796H295v6.31H268Z"/><path class="logo-topo-6" d="M306.66,765.4h8.87v36.9h-8.87Z"/><path class="logo-topo-6" d="M328,801.84v-6.76a107.1,107.1,0,0,0,13.18,1.48q7.39,0,7.4-3.81v-2.39a3.62,3.62,0,0,0-1.06-2.79q-1.05-1-3.78-1h-4.32q-12.16,0-12.16-9.67v-2.73a7.57,7.57,0,0,1,4-7.1q4-2.28,12.79-2.28a114.78,114.78,0,0,1,11.55.74v6.6a118,118,0,0,0-11.83-1q-4.48,0-6,.74a2.62,2.62,0,0,0-1.64,2.5V777c0,1.93,1.62,2.9,4.88,2.9h4.44q6.31,0,9.15,2.33c1.9,1.55,2.84,3.92,2.84,7.11v2.44q0,6.6-4.71,8.93a17.28,17.28,0,0,1-5,1.67,38,38,0,0,1-6.62.49A102,102,0,0,1,328,801.84Z"/><path class="logo-topo-6" d="M377.84,771.71H366.47V765.4H398v6.31H386.71V802.3h-8.87Z"/><path class="logo-topo-6" d="M418.6,765.4h10.8l13.31,36.9h-9l-3.3-9.72H417l-3.24,9.72H405Zm9.89,21.26-4.66-13.87h-.23l-4.66,13.87Z"/><path class="logo-topo-6" d="M467.26,765.4h9l9.89,29.51h.23l9.89-29.51H505l-13.64,36.9H480.51Z"/><path class="logo-topo-6" d="M514.68,765.4h8.87v36.9h-8.87Z"/><path class="logo-topo-6" d="M537.19,765.4h16.6q7.4,0,10.69,1.79a6.29,6.29,0,0,1,3.3,6v6.48a6.18,6.18,0,0,1-2.3,5.09,12.22,12.22,0,0,1-6.11,2.36l10.68,15.18H559.82l-9.67-14.5h-4.09v14.5h-8.87Zm16.49,16.54c2.08,0,3.5-.27,4.26-.82s1.14-1.62,1.14-3.21v-2.62a3.06,3.06,0,0,0-1.22-2.81,8.34,8.34,0,0,0-4.18-.77h-7.62v10.23Z"/><path class="logo-topo-6" d="M589.38,771.71H578V765.4h31.56v6.31H598.25V802.3h-8.87Z"/><path class="logo-topo-6" d="M620.25,792.18V765.4h8.87v26.78a3.63,3.63,0,0,0,1.62,3.44c1.08.62,3,.94,5.6.94s4.45-.32,5.49-.94a3.68,3.68,0,0,0,1.56-3.44V765.4h8.87v26.78q0,10.7-16,10.69T620.25,792.18Z"/><path class="logo-topo-6" d="M675.57,765.4h10.8l13.31,36.9h-9l-3.29-9.72H673.92l-3.24,9.72h-8.75Zm9.89,21.26-4.66-13.87h-.23l-4.66,13.87Z"/><path class="logo-topo-6" d="M709.45,765.4h8.87V796h18.14v6.31h-27Z"/></g></g></svg>