<svg xmlns="http://www.w3.org/2000/svg" viewBox="0 0 118.07 114.63"><defs><style>.pessoa-1{fill:#980039;}</style></defs><title>mulher1</title><g id="Camada_2" data-name="Camada 2"><g id="Camada_1-2" data-name="Camada 1"><path class="pessoa-1" d="M85.43,56.62a23.41,23.41,0,0,1-.66-12.94c2.38-9.8-.06-23.13-.06-23.13C81.88-2.44,69.23,3.07,69.23,3.07,67.61.26,62.14.12,62.14.12c-21.11-1.92-27,20.43-27,20.43s-2.44,13.33-.05,23.13a23.5,23.5,0,0,1-.67,12.94c-1.86,5.68,3.19,11.26,9.73,10.69l4-.35a38.13,38.13,0,0,0,1.74-8.66C42.44,53.48,41.57,45,41.57,45V28.89h0s16.29-4.1,24.56-12.67L78,28.47,78,45s-.92,8.94-8.92,13.68a38,38,0,0,0,1.67,8.23l4.94.42C82.23,67.88,87.29,62.3,85.43,56.62Z"/><path class="pessoa-1" d="M118.07,114.63l-8.23-23.94a25.23,25.23,0,0,0-16.58-16,206.45,206.45,0,0,0-20.48-5s-.12.55-.07.6L59.85,103.83,46.25,70.35c0-.06-.44-.43-.39-.49a212.61,212.61,0,0,0-21,4.93,25.15,25.15,0,0,0-16.64,16L0,114.63Z"/><path class="pessoa-1" d="M73.53,69.51c-1.86-1.82-2.94-7.23-3.33-11.57A18.06,18.06,0,0,1,68,59.28c.75,6.85,2.43,10,3.41,11.31L59.82,101.14,47.61,70.58C48.61,69.25,50.31,66,51,59a16.59,16.59,0,0,1-2.24-1.45c-.36,4.4-1.45,10.11-3.38,12l-.56.56,15,37.61L74.09,70Z"/><path class="pessoa-1" d="M69.3,59.33s-4.53,7.88-15.95,6.9L50.18,76.86l-3.93-6.51,3.55-11.7S60.54,63.37,69.3,59.33Z"/><path class="pessoa-1" d="M41.57,43.34c-3.6-.24-4-1.94-4-3.84s-.63-4-1.83-8.67S41,28.58,41,28.58l.55,1.36Z"/><path class="pessoa-1" d="M83.13,30.83c-1.19,4.67-1.9,6.71-1.82,8.67.07,1.78-.31,3.37-3.28,3.78V28.89l-.2-.16.06-.15S84.32,26.17,83.13,30.83Z"/><path class="pessoa-1" d="M59.93,62.62H59.6c-9.05-.77-13.8-5.49-16.18-9.31a20.82,20.82,0,0,1-3-8.21V28.27h0V28l.89-.23a74.64,74.64,0,0,0,9-3.09c6.52-2.68,11.69-5.88,15-9.26l.85-.87L79.23,28l0,17.11a21.21,21.21,0,0,1-3,8.21C73.78,57.13,69,61.85,60,62.62Zm-.18-2.36h.08c15-1.3,16.87-14.25,17-15.34l0-16L66.11,17.89C58.6,25,46.19,28.83,42.75,29.79V44.92C42.88,46,44.75,59,59.75,60.26Z"/></g></g></svg>